<svg width="50" height="50" viewBox="0 0 50 50" fill="none" xmlns="http://www.w3.org/2000/svg">
<path d="M32.15 17.985C32.207 17.995 32.264 18 32.322 18C34.378 17.999 40 12.896 40 9C40 5.912 36.886 4 34 4C30.869 4 29 5.869 29 9C29 12.318 30.353 17.672 32.15 17.985ZM41.069 15.013C38.187 15.013 34.041 19.253 34.041 20.697C34.041 22.489 38.398 24.001 41.135 24.001C43.591 24 45 22.598 45 20.151C45 17.67 43.42 15.013 41.069 15.013ZM25 17C18.295 17 8.77396 36.255 8.01996 44.126C7.99196 44.422 8.09696 44.715 8.30596 44.926C8.49396 45.116 8.74996 45.222 9.01596 45.222C9.04496 45.222 9.07396 45.221 9.10296 45.218C17.231 44.504 35 34.19 35 27.604C35 22.688 28.948 17 25 17Z" fill="#525252"/>
</svg>
