<svg width="277" height="446" viewBox="0 0 277 446" fill="none" xmlns="http://www.w3.org/2000/svg">
<path d="M163 32.0028C219.329 31.5847 229.669 77.8267 227.798 101" stroke="black" stroke-width="2"/>
<path d="M72.0028 196C71.5847 139.671 117.827 129.331 141 131.202" stroke="black" stroke-width="2"/>
<path d="M176.806 224.003C233.126 225.059 242.253 271.556 239.776 294.673" stroke="black" stroke-width="2"/>
<path d="M107.567 391.041C106.145 334.729 154.486 323.543 178.835 324.989" stroke="black" stroke-width="2"/>
<g filter="url(#filter0_dd_233_84)">
<rect x="72" y="374" width="71" height="63" rx="15" fill="#262626"/>
<path d="M101.883 408.94C102.416 408.94 102.836 409.087 103.143 409.38C103.463 409.673 103.623 410.067 103.623 410.56C103.623 411.067 103.463 411.467 103.143 411.76C102.836 412.04 102.416 412.18 101.883 412.18C101.349 412.18 100.923 412.04 100.603 411.76C100.296 411.467 100.143 411.067 100.143 410.56C100.143 410.067 100.296 409.673 100.603 409.38C100.923 409.087 101.349 408.94 101.883 408.94ZM107.508 408.94C108.041 408.94 108.461 409.087 108.768 409.38C109.088 409.673 109.248 410.067 109.248 410.56C109.248 411.067 109.088 411.467 108.768 411.76C108.461 412.04 108.041 412.18 107.508 412.18C106.974 412.18 106.548 412.04 106.228 411.76C105.921 411.467 105.768 411.067 105.768 410.56C105.768 410.067 105.921 409.673 106.228 409.38C106.548 409.087 106.974 408.94 107.508 408.94ZM113.133 408.94C113.666 408.94 114.086 409.087 114.393 409.38C114.713 409.673 114.873 410.067 114.873 410.56C114.873 411.067 114.713 411.467 114.393 411.76C114.086 412.04 113.666 412.18 113.133 412.18C112.599 412.18 112.173 412.04 111.853 411.76C111.546 411.467 111.393 411.067 111.393 410.56C111.393 410.067 111.546 409.673 111.853 409.38C112.173 409.087 112.599 408.94 113.133 408.94Z" fill="white"/>
</g>
<g filter="url(#filter1_dd_233_84)">
<rect x="5" y="1" width="158" height="63" rx="15" fill="#262626"/>
<path d="M38.5346 25.8V39H35.7746V25.8H38.5346ZM29.9546 25.8V39H27.1946V25.8H29.9546ZM37.2146 31.22V33.44H28.5746V31.22H37.2146ZM46.1621 28.8C47.1754 28.8 48.0621 29.0067 48.8221 29.42C49.5954 29.8333 50.1954 30.4267 50.6221 31.2C51.0621 31.9733 51.2821 32.9067 51.2821 34C51.2821 35.08 51.0621 36.0133 50.6221 36.8C50.1954 37.5733 49.5954 38.1667 48.8221 38.58C48.0621 38.9933 47.1754 39.2 46.1621 39.2C45.1621 39.2 44.2754 38.9933 43.5021 38.58C42.7288 38.1667 42.1221 37.5733 41.6821 36.8C41.2554 36.0133 41.0421 35.08 41.0421 34C41.0421 32.9067 41.2554 31.9733 41.6821 31.2C42.1221 30.4267 42.7288 29.8333 43.5021 29.42C44.2754 29.0067 45.1621 28.8 46.1621 28.8ZM46.1621 30.84C45.6554 30.84 45.2221 30.96 44.8621 31.2C44.5154 31.4267 44.2488 31.7733 44.0621 32.24C43.8754 32.7067 43.7821 33.2933 43.7821 34C43.7821 34.7067 43.8754 35.2933 44.0621 35.76C44.2488 36.2267 44.5154 36.58 44.8621 36.82C45.2221 37.0467 45.6554 37.16 46.1621 37.16C46.6554 37.16 47.0754 37.0467 47.4221 36.82C47.7821 36.58 48.0554 36.2267 48.2421 35.76C48.4288 35.2933 48.5221 34.7067 48.5221 34C48.5221 33.2933 48.4288 32.7067 48.2421 32.24C48.0554 31.7733 47.7821 31.4267 47.4221 31.2C47.0754 30.96 46.6554 30.84 46.1621 30.84ZM53.5748 39V29H56.0348L56.1348 30.8C56.4681 30.1333 56.9214 29.6333 57.4948 29.3C58.0814 28.9667 58.7281 28.8 59.4348 28.8C60.1548 28.8 60.8014 28.9667 61.3748 29.3C61.9614 29.6333 62.4014 30.1267 62.6948 30.78C62.9081 30.34 63.1948 29.9733 63.5548 29.68C63.9148 29.3867 64.3148 29.1667 64.7548 29.02C65.1948 28.8733 65.6414 28.8 66.0948 28.8C66.7481 28.8 67.3414 28.9333 67.8748 29.2C68.4214 29.4667 68.8548 29.8667 69.1748 30.4C69.4948 30.9333 69.6548 31.6133 69.6548 32.44V39H66.9148V32.98C66.9148 32.2467 66.7548 31.7267 66.4348 31.42C66.1148 31.1133 65.7014 30.96 65.1948 30.96C64.7948 30.96 64.4214 31.06 64.0748 31.26C63.7414 31.46 63.4748 31.76 63.2748 32.16C63.0881 32.5467 62.9948 33.0333 62.9948 33.62V39H60.2548V32.98C60.2548 32.2467 60.0881 31.7267 59.7548 31.42C59.4348 31.1133 59.0214 30.96 58.5148 30.96C58.1681 30.96 57.8214 31.0533 57.4748 31.24C57.1414 31.4267 56.8614 31.72 56.6348 32.12C56.4214 32.52 56.3148 33.0467 56.3148 33.7V39H53.5748ZM77.121 39.2C76.0677 39.2 75.1477 38.9933 74.361 38.58C73.5877 38.1667 72.9877 37.5733 72.561 36.8C72.1343 36.0267 71.921 35.0933 71.921 34C71.921 32.9067 72.1343 31.9733 72.561 31.2C72.9877 30.4267 73.581 29.8333 74.341 29.42C75.1143 29.0067 75.9943 28.8 76.981 28.8C77.9943 28.8 78.8543 29.0067 79.561 29.42C80.2677 29.82 80.8077 30.3733 81.181 31.08C81.5543 31.7733 81.741 32.5667 81.741 33.46C81.741 33.7267 81.7343 33.98 81.721 34.22C81.7077 34.46 81.6877 34.6733 81.661 34.86H73.681V32.96H80.461L79.141 33.44C79.141 32.6 78.9477 31.9533 78.561 31.5C78.1877 31.0467 77.6543 30.82 76.961 30.82C76.4543 30.82 76.0143 30.94 75.641 31.18C75.281 31.42 75.0077 31.78 74.821 32.26C74.6343 32.7267 74.541 33.32 74.541 34.04C74.541 34.7467 74.641 35.3333 74.841 35.8C75.0543 36.2533 75.3477 36.5933 75.721 36.82C76.1077 37.0467 76.5677 37.16 77.101 37.16C77.6877 37.16 78.161 37.0467 78.521 36.82C78.881 36.5933 79.161 36.28 79.361 35.88L81.541 36.72C81.3277 37.24 81.001 37.6867 80.561 38.06C80.1343 38.4333 79.621 38.72 79.021 38.92C78.4343 39.1067 77.801 39.2 77.121 39.2ZM96.6896 29H99.6096L96.4096 39H93.2496L91.0696 32.2L88.9696 39H85.8096L82.6096 29H85.5296L87.5296 36.66L89.7496 29H92.4696L94.7096 36.66L96.6896 29ZM105.596 28.8C106.609 28.8 107.496 29.0067 108.256 29.42C109.029 29.8333 109.629 30.4267 110.056 31.2C110.496 31.9733 110.716 32.9067 110.716 34C110.716 35.08 110.496 36.0133 110.056 36.8C109.629 37.5733 109.029 38.1667 108.256 38.58C107.496 38.9933 106.609 39.2 105.596 39.2C104.596 39.2 103.709 38.9933 102.936 38.58C102.162 38.1667 101.556 37.5733 101.116 36.8C100.689 36.0133 100.476 35.08 100.476 34C100.476 32.9067 100.689 31.9733 101.116 31.2C101.556 30.4267 102.162 29.8333 102.936 29.42C103.709 29.0067 104.596 28.8 105.596 28.8ZM105.596 30.84C105.089 30.84 104.656 30.96 104.296 31.2C103.949 31.4267 103.682 31.7733 103.496 32.24C103.309 32.7067 103.216 33.2933 103.216 34C103.216 34.7067 103.309 35.2933 103.496 35.76C103.682 36.2267 103.949 36.58 104.296 36.82C104.656 37.0467 105.089 37.16 105.596 37.16C106.089 37.16 106.509 37.0467 106.856 36.82C107.216 36.58 107.489 36.2267 107.676 35.76C107.862 35.2933 107.956 34.7067 107.956 34C107.956 33.2933 107.862 32.7067 107.676 32.24C107.489 31.7733 107.216 31.4267 106.856 31.2C106.509 30.96 106.089 30.84 105.596 30.84ZM113.008 39V29H115.388L115.568 30.96C115.835 30.2667 116.222 29.7333 116.728 29.36C117.248 28.9867 117.895 28.8 118.668 28.8C118.895 28.8 119.102 28.82 119.288 28.86C119.475 28.9 119.628 28.9533 119.748 29.02L119.428 31.32C119.295 31.2667 119.128 31.2267 118.928 31.2C118.742 31.1733 118.495 31.16 118.188 31.16C117.788 31.16 117.402 31.26 117.028 31.46C116.655 31.6467 116.348 31.94 116.108 32.34C115.868 32.7267 115.748 33.22 115.748 33.82V39H113.008ZM131.626 29L127.006 33.82L126.466 34.08L123.466 37.3L123.426 34.38L128.506 29H131.626ZM124.186 24.62V39H121.446V24.62H124.186ZM127.386 32.18L131.866 39H128.766L125.506 33.78L127.386 32.18ZM137.34 39.2C136.327 39.2 135.4 39.02 134.56 38.66C133.734 38.3 133.06 37.7933 132.54 37.14L134.12 35.54C134.44 36.02 134.867 36.4133 135.4 36.72C135.934 37.0267 136.567 37.18 137.3 37.18C137.82 37.18 138.234 37.1067 138.54 36.96C138.86 36.8 139.02 36.5533 139.02 36.22C139.02 36.0067 138.947 35.8267 138.8 35.68C138.654 35.52 138.36 35.3933 137.92 35.3L136.16 34.94C135 34.7 134.174 34.34 133.68 33.86C133.2 33.3667 132.96 32.7333 132.96 31.96C132.96 31.4133 133.12 30.9 133.44 30.42C133.774 29.94 134.267 29.5533 134.92 29.26C135.574 28.9533 136.387 28.8 137.36 28.8C138.36 28.8 139.227 28.96 139.96 29.28C140.707 29.5867 141.294 30.0467 141.72 30.66L140.08 32.26C139.787 31.7933 139.4 31.44 138.92 31.2C138.454 30.9467 137.96 30.82 137.44 30.82C137.067 30.82 136.747 30.86 136.48 30.94C136.214 31.02 136.014 31.1333 135.88 31.28C135.747 31.4133 135.68 31.5867 135.68 31.8C135.68 32.0133 135.774 32.2 135.96 32.36C136.147 32.5067 136.487 32.6333 136.98 32.74L139.02 33.16C140.007 33.36 140.714 33.7 141.14 34.18C141.567 34.6467 141.78 35.2133 141.78 35.88C141.78 36.52 141.607 37.0933 141.26 37.6C140.927 38.0933 140.427 38.4867 139.76 38.78C139.107 39.06 138.3 39.2 137.34 39.2Z" fill="white"/>
</g>
<g filter="url(#filter2_dd_233_84)">
<rect x="141" y="101" width="131" height="63" rx="15" fill="#404040"/>
<path d="M167.542 125.6C168.742 125.6 169.795 125.807 170.702 126.22C171.609 126.633 172.382 127.247 173.022 128.06L171.482 129.84C170.935 129.147 170.335 128.64 169.682 128.32C169.042 127.987 168.295 127.82 167.442 127.82C166.882 127.82 166.415 127.893 166.042 128.04C165.682 128.187 165.415 128.38 165.242 128.62C165.082 128.86 165.002 129.127 165.002 129.42C165.002 129.78 165.142 130.087 165.422 130.34C165.702 130.58 166.182 130.78 166.862 130.94L169.322 131.5C170.629 131.793 171.562 132.233 172.122 132.82C172.695 133.393 172.982 134.14 172.982 135.06C172.982 135.927 172.755 136.673 172.302 137.3C171.849 137.913 171.215 138.387 170.402 138.72C169.589 139.04 168.655 139.2 167.602 139.2C166.682 139.2 165.835 139.093 165.062 138.88C164.302 138.653 163.622 138.347 163.022 137.96C162.422 137.573 161.922 137.127 161.522 136.62L163.082 134.76C163.389 135.187 163.769 135.567 164.222 135.9C164.675 136.233 165.189 136.5 165.762 136.7C166.349 136.887 166.962 136.98 167.602 136.98C168.149 136.98 168.609 136.92 168.982 136.8C169.369 136.667 169.655 136.487 169.842 136.26C170.042 136.02 170.142 135.733 170.142 135.4C170.142 135.053 170.022 134.76 169.782 134.52C169.555 134.267 169.129 134.073 168.502 133.94L165.822 133.34C165.049 133.153 164.382 132.913 163.822 132.62C163.275 132.313 162.855 131.927 162.562 131.46C162.282 130.98 162.142 130.413 162.142 129.76C162.142 128.973 162.355 128.267 162.782 127.64C163.209 127.013 163.822 126.52 164.622 126.16C165.435 125.787 166.409 125.6 167.542 125.6ZM179.853 128.8C180.746 128.8 181.5 128.933 182.113 129.2C182.74 129.453 183.24 129.807 183.613 130.26C184 130.7 184.273 131.193 184.433 131.74L181.873 132.66C181.74 132.06 181.513 131.607 181.193 131.3C180.873 130.993 180.44 130.84 179.893 130.84C179.386 130.84 178.953 130.96 178.593 131.2C178.233 131.427 177.96 131.78 177.773 132.26C177.586 132.727 177.493 133.313 177.493 134.02C177.493 134.727 177.586 135.313 177.773 135.78C177.973 136.247 178.253 136.593 178.613 136.82C178.986 137.047 179.42 137.16 179.913 137.16C180.313 137.16 180.653 137.093 180.933 136.96C181.213 136.813 181.44 136.607 181.613 136.34C181.8 136.073 181.926 135.753 181.993 135.38L184.473 136.18C184.326 136.78 184.053 137.307 183.653 137.76C183.253 138.213 182.74 138.567 182.113 138.82C181.486 139.073 180.76 139.2 179.933 139.2C178.906 139.2 178 138.993 177.213 138.58C176.426 138.167 175.82 137.573 175.393 136.8C174.966 136.027 174.753 135.093 174.753 134C174.753 132.907 174.966 131.973 175.393 131.2C175.82 130.427 176.42 129.833 177.193 129.42C177.966 129.007 178.853 128.8 179.853 128.8ZM186.602 139V124.62H189.342V130.7C189.662 130.06 190.102 129.587 190.662 129.28C191.222 128.96 191.855 128.8 192.562 128.8C193.255 128.8 193.869 128.933 194.402 129.2C194.949 129.467 195.375 129.873 195.682 130.42C196.002 130.953 196.162 131.627 196.162 132.44V139H193.422V133.24C193.422 132.373 193.255 131.78 192.922 131.46C192.589 131.127 192.162 130.96 191.642 130.96C191.255 130.96 190.882 131.053 190.522 131.24C190.175 131.413 189.889 131.707 189.662 132.12C189.449 132.52 189.342 133.053 189.342 133.72V139H186.602ZM203.625 139.2C202.572 139.2 201.652 138.993 200.865 138.58C200.092 138.167 199.492 137.573 199.065 136.8C198.638 136.027 198.425 135.093 198.425 134C198.425 132.907 198.638 131.973 199.065 131.2C199.492 130.427 200.085 129.833 200.845 129.42C201.618 129.007 202.498 128.8 203.485 128.8C204.498 128.8 205.358 129.007 206.065 129.42C206.772 129.82 207.312 130.373 207.685 131.08C208.058 131.773 208.245 132.567 208.245 133.46C208.245 133.727 208.238 133.98 208.225 134.22C208.212 134.46 208.192 134.673 208.165 134.86H200.185V132.96H206.965L205.645 133.44C205.645 132.6 205.452 131.953 205.065 131.5C204.692 131.047 204.158 130.82 203.465 130.82C202.958 130.82 202.518 130.94 202.145 131.18C201.785 131.42 201.512 131.78 201.325 132.26C201.138 132.727 201.045 133.32 201.045 134.04C201.045 134.747 201.145 135.333 201.345 135.8C201.558 136.253 201.852 136.593 202.225 136.82C202.612 137.047 203.072 137.16 203.605 137.16C204.192 137.16 204.665 137.047 205.025 136.82C205.385 136.593 205.665 136.28 205.865 135.88L208.045 136.72C207.832 137.24 207.505 137.687 207.065 138.06C206.638 138.433 206.125 138.72 205.525 138.92C204.938 139.107 204.305 139.2 203.625 139.2ZM214.347 139.2C213.52 139.2 212.78 138.993 212.127 138.58C211.487 138.167 210.98 137.573 210.607 136.8C210.247 136.027 210.067 135.1 210.067 134.02C210.067 132.913 210.26 131.973 210.647 131.2C211.034 130.413 211.554 129.82 212.207 129.42C212.874 129.007 213.62 128.8 214.447 128.8C215.327 128.8 216.054 129.053 216.627 129.56C217.2 130.067 217.574 130.72 217.747 131.52L217.487 131.84V124.62H220.227V139H217.767L217.587 135.96L217.927 136.12C217.834 136.747 217.62 137.293 217.287 137.76C216.954 138.213 216.534 138.567 216.027 138.82C215.52 139.073 214.96 139.2 214.347 139.2ZM215.147 137.1C215.627 137.1 216.04 136.98 216.387 136.74C216.734 136.487 217 136.12 217.187 135.64C217.387 135.16 217.487 134.587 217.487 133.92C217.487 133.28 217.394 132.74 217.207 132.3C217.02 131.847 216.754 131.5 216.407 131.26C216.06 131.02 215.654 130.9 215.187 130.9C214.44 130.9 213.854 131.167 213.427 131.7C213.014 132.22 212.807 132.987 212.807 134C212.807 135.013 213.014 135.787 213.427 136.32C213.84 136.84 214.414 137.1 215.147 137.1ZM226.586 139.2C225.919 139.2 225.319 139.08 224.786 138.84C224.253 138.6 223.826 138.22 223.506 137.7C223.199 137.167 223.046 136.48 223.046 135.64V129H225.786V134.98C225.786 135.753 225.946 136.293 226.266 136.6C226.586 136.893 227.046 137.04 227.646 137.04C227.926 137.04 228.199 136.993 228.466 136.9C228.733 136.793 228.966 136.633 229.166 136.42C229.379 136.207 229.546 135.933 229.666 135.6C229.786 135.253 229.846 134.847 229.846 134.38V129H232.586V139H230.146L230.046 137.26C229.713 137.927 229.253 138.42 228.666 138.74C228.093 139.047 227.399 139.2 226.586 139.2ZM238.169 124.62V135.92C238.169 136.387 238.249 136.713 238.409 136.9C238.569 137.087 238.836 137.18 239.209 137.18C239.436 137.18 239.623 137.167 239.769 137.14C239.916 137.1 240.103 137.047 240.329 136.98L240.089 138.78C239.863 138.913 239.576 139.013 239.229 139.08C238.896 139.16 238.563 139.2 238.229 139.2C237.256 139.2 236.543 138.967 236.089 138.5C235.649 138.02 235.429 137.26 235.429 136.22V124.62H238.169ZM246.496 139.2C245.443 139.2 244.523 138.993 243.736 138.58C242.963 138.167 242.363 137.573 241.936 136.8C241.509 136.027 241.296 135.093 241.296 134C241.296 132.907 241.509 131.973 241.936 131.2C242.363 130.427 242.956 129.833 243.716 129.42C244.489 129.007 245.369 128.8 246.356 128.8C247.369 128.8 248.229 129.007 248.936 129.42C249.643 129.82 250.183 130.373 250.556 131.08C250.929 131.773 251.116 132.567 251.116 133.46C251.116 133.727 251.109 133.98 251.096 134.22C251.083 134.46 251.063 134.673 251.036 134.86H243.056V132.96H249.836L248.516 133.44C248.516 132.6 248.323 131.953 247.936 131.5C247.563 131.047 247.029 130.82 246.336 130.82C245.829 130.82 245.389 130.94 245.016 131.18C244.656 131.42 244.383 131.78 244.196 132.26C244.009 132.727 243.916 133.32 243.916 134.04C243.916 134.747 244.016 135.333 244.216 135.8C244.429 136.253 244.723 136.593 245.096 136.82C245.483 137.047 245.943 137.16 246.476 137.16C247.063 137.16 247.536 137.047 247.896 136.82C248.256 136.593 248.536 136.28 248.736 135.88L250.916 136.72C250.703 137.24 250.376 137.687 249.936 138.06C249.509 138.433 248.996 138.72 248.396 138.92C247.809 139.107 247.176 139.2 246.496 139.2Z" fill="white"/>
</g>
<g filter="url(#filter3_dd_233_84)">
<rect x="176" y="291" width="95" height="63" rx="15" fill="#404040"/>
<path d="M209.558 315.8V329H206.398L201.778 321.24L200.638 319.08H200.618L200.698 321.36V329H198.218V315.8H201.358L205.978 323.54L207.118 325.72H207.158L207.078 323.44V315.8H209.558ZM217.266 329.2C216.212 329.2 215.292 328.993 214.506 328.58C213.732 328.167 213.132 327.573 212.706 326.8C212.279 326.027 212.066 325.093 212.066 324C212.066 322.907 212.279 321.973 212.706 321.2C213.132 320.427 213.726 319.833 214.486 319.42C215.259 319.007 216.139 318.8 217.126 318.8C218.139 318.8 218.999 319.007 219.706 319.42C220.412 319.82 220.952 320.373 221.326 321.08C221.699 321.773 221.886 322.567 221.886 323.46C221.886 323.727 221.879 323.98 221.866 324.22C221.852 324.46 221.832 324.673 221.806 324.86H213.826V322.96H220.606L219.286 323.44C219.286 322.6 219.092 321.953 218.706 321.5C218.332 321.047 217.799 320.82 217.106 320.82C216.599 320.82 216.159 320.94 215.786 321.18C215.426 321.42 215.152 321.78 214.966 322.26C214.779 322.727 214.686 323.32 214.686 324.04C214.686 324.747 214.786 325.333 214.986 325.8C215.199 326.253 215.492 326.593 215.866 326.82C216.252 327.047 216.712 327.16 217.246 327.16C217.832 327.16 218.306 327.047 218.666 326.82C219.026 326.593 219.306 326.28 219.506 325.88L221.686 326.72C221.472 327.24 221.146 327.687 220.706 328.06C220.279 328.433 219.766 328.72 219.166 328.92C218.579 329.107 217.946 329.2 217.266 329.2ZM236.834 319H239.754L236.554 329H233.394L231.214 322.2L229.114 329H225.954L222.754 319H225.674L227.674 326.66L229.894 319H232.614L234.854 326.66L236.834 319ZM245.317 329.2C244.304 329.2 243.377 329.02 242.537 328.66C241.71 328.3 241.037 327.793 240.517 327.14L242.097 325.54C242.417 326.02 242.844 326.413 243.377 326.72C243.91 327.027 244.544 327.18 245.277 327.18C245.797 327.18 246.21 327.107 246.517 326.96C246.837 326.8 246.997 326.553 246.997 326.22C246.997 326.007 246.924 325.827 246.777 325.68C246.63 325.52 246.337 325.393 245.897 325.3L244.137 324.94C242.977 324.7 242.15 324.34 241.657 323.86C241.177 323.367 240.937 322.733 240.937 321.96C240.937 321.413 241.097 320.9 241.417 320.42C241.75 319.94 242.244 319.553 242.897 319.26C243.55 318.953 244.364 318.8 245.337 318.8C246.337 318.8 247.204 318.96 247.937 319.28C248.684 319.587 249.27 320.047 249.697 320.66L248.057 322.26C247.764 321.793 247.377 321.44 246.897 321.2C246.43 320.947 245.937 320.82 245.417 320.82C245.044 320.82 244.724 320.86 244.457 320.94C244.19 321.02 243.99 321.133 243.857 321.28C243.724 321.413 243.657 321.587 243.657 321.8C243.657 322.013 243.75 322.2 243.937 322.36C244.124 322.507 244.464 322.633 244.957 322.74L246.997 323.16C247.984 323.36 248.69 323.7 249.117 324.18C249.544 324.647 249.757 325.213 249.757 325.88C249.757 326.52 249.584 327.093 249.237 327.6C248.904 328.093 248.404 328.487 247.737 328.78C247.084 329.06 246.277 329.2 245.317 329.2Z" fill="white"/>
</g>
<g filter="url(#filter4_dd_233_84)">
<rect x="5" y="196" width="192" height="63" rx="15" fill="#262626"/>
<path d="M38.395 230.36C38.1417 231.213 37.7417 231.927 37.195 232.5C36.6483 233.073 36.0017 233.5 35.255 233.78C34.5083 234.06 33.6883 234.2 32.795 234.2C31.4883 234.2 30.355 233.927 29.395 233.38C28.4483 232.833 27.715 232.053 27.195 231.04C26.6883 230.027 26.435 228.813 26.435 227.4C26.435 225.987 26.6883 224.773 27.195 223.76C27.715 222.747 28.4483 221.967 29.395 221.42C30.355 220.873 31.475 220.6 32.755 220.6C33.6617 220.6 34.4817 220.727 35.215 220.98C35.9483 221.22 36.5683 221.593 37.075 222.1C37.595 222.607 37.975 223.247 38.215 224.02L35.715 225.08C35.4883 224.28 35.1417 223.713 34.675 223.38C34.2083 223.033 33.6083 222.86 32.875 222.86C32.155 222.86 31.5217 223.033 30.975 223.38C30.4417 223.727 30.0283 224.24 29.735 224.92C29.4417 225.587 29.295 226.413 29.295 227.4C29.295 228.373 29.4283 229.2 29.695 229.88C29.975 230.56 30.3817 231.073 30.915 231.42C31.4483 231.767 32.1017 231.94 32.875 231.94C33.595 231.94 34.215 231.747 34.735 231.36C35.2683 230.973 35.6417 230.387 35.855 229.6L38.395 230.36ZM46.1673 227.62C46.1673 227.047 46.0007 226.6 45.6673 226.28C45.3473 225.96 44.9207 225.8 44.3873 225.8C43.894 225.8 43.4607 225.927 43.0873 226.18C42.714 226.433 42.4407 226.853 42.2673 227.44L39.9273 226.72C40.154 225.84 40.6473 225.133 41.4073 224.6C42.1807 224.067 43.214 223.8 44.5073 223.8C45.3873 223.8 46.154 223.94 46.8073 224.22C47.4607 224.487 47.9673 224.893 48.3273 225.44C48.7007 225.987 48.8873 226.673 48.8873 227.5V231.56C48.8873 232.067 49.1273 232.32 49.6073 232.32C49.834 232.32 50.0473 232.287 50.2473 232.22L50.0873 233.92C49.7407 234.093 49.3073 234.18 48.7873 234.18C48.3207 234.18 47.9007 234.1 47.5273 233.94C47.154 233.78 46.8607 233.54 46.6473 233.22C46.434 232.887 46.3273 232.473 46.3273 231.98V231.9L46.8073 231.82C46.7273 232.327 46.5073 232.76 46.1473 233.12C45.7873 233.467 45.3473 233.733 44.8273 233.92C44.3207 234.107 43.794 234.2 43.2473 234.2C42.5673 234.2 41.9807 234.1 41.4873 233.9C40.994 233.687 40.614 233.38 40.3473 232.98C40.0807 232.58 39.9473 232.087 39.9473 231.5C39.9473 230.753 40.1873 230.147 40.6673 229.68C41.1473 229.2 41.834 228.873 42.7273 228.7L46.4873 227.94L46.4673 229.64L44.0673 230.12C43.614 230.213 43.2673 230.34 43.0273 230.5C42.8007 230.647 42.6873 230.893 42.6873 231.24C42.6873 231.573 42.8073 231.827 43.0473 232C43.3007 232.173 43.6007 232.26 43.9473 232.26C44.2273 232.26 44.5007 232.227 44.7673 232.16C45.034 232.093 45.274 231.987 45.4873 231.84C45.7007 231.693 45.8673 231.493 45.9873 231.24C46.1073 230.987 46.1673 230.68 46.1673 230.32V227.62ZM56.3531 219.42C56.8198 219.42 57.2398 219.473 57.6131 219.58C57.9998 219.673 58.2865 219.793 58.4731 219.94L58.0931 221.76C57.9465 221.667 57.7798 221.593 57.5931 221.54C57.4065 221.487 57.1865 221.46 56.9331 221.46C56.4131 221.46 55.9998 221.58 55.6931 221.82C55.3865 222.047 55.2331 222.44 55.2331 223V224.38L55.3531 224.92V234H52.6131V222.8C52.6131 222.24 52.7065 221.747 52.8931 221.32C53.0798 220.893 53.3398 220.54 53.6731 220.26C54.0065 219.98 54.3998 219.773 54.8531 219.64C55.3198 219.493 55.8198 219.42 56.3531 219.42ZM58.3931 224V226.04H50.8731V224H58.3931ZM64.5019 234.2C63.4485 234.2 62.5285 233.993 61.7419 233.58C60.9685 233.167 60.3685 232.573 59.9419 231.8C59.5152 231.027 59.3019 230.093 59.3019 229C59.3019 227.907 59.5152 226.973 59.9419 226.2C60.3685 225.427 60.9619 224.833 61.7219 224.42C62.4952 224.007 63.3752 223.8 64.3619 223.8C65.3752 223.8 66.2352 224.007 66.9419 224.42C67.6485 224.82 68.1885 225.373 68.5619 226.08C68.9352 226.773 69.1219 227.567 69.1219 228.46C69.1219 228.727 69.1152 228.98 69.1019 229.22C69.0885 229.46 69.0685 229.673 69.0419 229.86H61.0619V227.96H67.8419L66.5219 228.44C66.5219 227.6 66.3285 226.953 65.9419 226.5C65.5685 226.047 65.0352 225.82 64.3419 225.82C63.8352 225.82 63.3952 225.94 63.0219 226.18C62.6619 226.42 62.3885 226.78 62.2019 227.26C62.0152 227.727 61.9219 228.32 61.9219 229.04C61.9219 229.747 62.0219 230.333 62.2219 230.8C62.4352 231.253 62.7285 231.593 63.1019 231.82C63.4885 232.047 63.9485 232.16 64.4819 232.16C65.0685 232.16 65.5419 232.047 65.9019 231.82C66.2619 231.593 66.5419 231.28 66.7419 230.88L68.9219 231.72C68.7085 232.24 68.3819 232.687 67.9419 233.06C67.5152 233.433 67.0019 233.72 66.4019 233.92C65.8152 234.107 65.1819 234.2 64.5019 234.2ZM74.8081 220.94V230.74C74.8081 231.22 74.9281 231.573 75.1681 231.8C75.4215 232.013 75.7615 232.12 76.1881 232.12C76.5215 232.12 76.8148 232.073 77.0681 231.98C77.3215 231.873 77.5481 231.733 77.7481 231.56L78.1881 233.38C77.8681 233.633 77.4681 233.833 76.9881 233.98C76.5081 234.127 76.0015 234.2 75.4681 234.2C74.8015 234.2 74.2081 234.1 73.6881 233.9C73.1815 233.7 72.7815 233.38 72.4881 232.94C72.2081 232.5 72.0681 231.913 72.0681 231.18V221.7L74.8081 220.94ZM78.0081 224V226.04H70.2281V224H78.0081ZM84.5019 234.2C83.4485 234.2 82.5285 233.993 81.7419 233.58C80.9685 233.167 80.3685 232.573 79.9419 231.8C79.5152 231.027 79.3019 230.093 79.3019 229C79.3019 227.907 79.5152 226.973 79.9419 226.2C80.3685 225.427 80.9619 224.833 81.7219 224.42C82.4952 224.007 83.3752 223.8 84.3619 223.8C85.3752 223.8 86.2352 224.007 86.9419 224.42C87.6485 224.82 88.1885 225.373 88.5619 226.08C88.9352 226.773 89.1219 227.567 89.1219 228.46C89.1219 228.727 89.1152 228.98 89.1019 229.22C89.0885 229.46 89.0685 229.673 89.0419 229.86H81.0619V227.96H87.8419L86.5219 228.44C86.5219 227.6 86.3285 226.953 85.9419 226.5C85.5685 226.047 85.0352 225.82 84.3419 225.82C83.8352 225.82 83.3952 225.94 83.0219 226.18C82.6619 226.42 82.3885 226.78 82.2019 227.26C82.0152 227.727 81.9219 228.32 81.9219 229.04C81.9219 229.747 82.0219 230.333 82.2219 230.8C82.4352 231.253 82.7285 231.593 83.1019 231.82C83.4885 232.047 83.9485 232.16 84.4819 232.16C85.0685 232.16 85.5419 232.047 85.9019 231.82C86.2619 231.593 86.5419 231.28 86.7419 230.88L88.9219 231.72C88.7085 232.24 88.3819 232.687 87.9419 233.06C87.5152 233.433 87.0019 233.72 86.4019 233.92C85.8152 234.107 85.1819 234.2 84.5019 234.2ZM91.4439 234V224H93.8239L94.0039 225.96C94.2706 225.267 94.6572 224.733 95.1639 224.36C95.6839 223.987 96.3306 223.8 97.1039 223.8C97.3306 223.8 97.5372 223.82 97.7239 223.86C97.9106 223.9 98.0639 223.953 98.1839 224.02L97.8639 226.32C97.7306 226.267 97.5639 226.227 97.3639 226.2C97.1772 226.173 96.9306 226.16 96.6239 226.16C96.2239 226.16 95.8372 226.26 95.4639 226.46C95.0906 226.647 94.7839 226.94 94.5439 227.34C94.3039 227.727 94.1839 228.22 94.1839 228.82V234H91.4439ZM101.261 222.56C100.688 222.56 100.261 222.44 99.9814 222.2C99.7014 221.947 99.5614 221.58 99.5614 221.1C99.5614 220.607 99.7014 220.24 99.9814 220C100.261 219.747 100.688 219.62 101.261 219.62C101.835 219.62 102.261 219.747 102.541 220C102.821 220.24 102.961 220.607 102.961 221.1C102.961 221.58 102.821 221.947 102.541 222.2C102.261 222.44 101.835 222.56 101.261 222.56ZM102.621 224V234H99.8814V224H102.621ZM111.226 227.62C111.226 227.047 111.059 226.6 110.726 226.28C110.406 225.96 109.979 225.8 109.446 225.8C108.953 225.8 108.519 225.927 108.146 226.18C107.773 226.433 107.499 226.853 107.326 227.44L104.986 226.72C105.213 225.84 105.706 225.133 106.466 224.6C107.239 224.067 108.273 223.8 109.566 223.8C110.446 223.8 111.213 223.94 111.866 224.22C112.519 224.487 113.026 224.893 113.386 225.44C113.759 225.987 113.946 226.673 113.946 227.5V231.56C113.946 232.067 114.186 232.32 114.666 232.32C114.893 232.32 115.106 232.287 115.306 232.22L115.146 233.92C114.799 234.093 114.366 234.18 113.846 234.18C113.379 234.18 112.959 234.1 112.586 233.94C112.213 233.78 111.919 233.54 111.706 233.22C111.493 232.887 111.386 232.473 111.386 231.98V231.9L111.866 231.82C111.786 232.327 111.566 232.76 111.206 233.12C110.846 233.467 110.406 233.733 109.886 233.92C109.379 234.107 108.853 234.2 108.306 234.2C107.626 234.2 107.039 234.1 106.546 233.9C106.053 233.687 105.673 233.38 105.406 232.98C105.139 232.58 105.006 232.087 105.006 231.5C105.006 230.753 105.246 230.147 105.726 229.68C106.206 229.2 106.893 228.873 107.786 228.7L111.546 227.94L111.526 229.64L109.126 230.12C108.673 230.213 108.326 230.34 108.086 230.5C107.859 230.647 107.746 230.893 107.746 231.24C107.746 231.573 107.866 231.827 108.106 232C108.359 232.173 108.659 232.26 109.006 232.26C109.286 232.26 109.559 232.227 109.826 232.16C110.093 232.093 110.333 231.987 110.546 231.84C110.759 231.693 110.926 231.493 111.046 231.24C111.166 230.987 111.226 230.68 111.226 230.32V227.62ZM122.831 234V224H125.291L125.391 225.8C125.724 225.133 126.177 224.633 126.751 224.3C127.337 223.967 127.984 223.8 128.691 223.8C129.411 223.8 130.057 223.967 130.631 224.3C131.217 224.633 131.657 225.127 131.951 225.78C132.164 225.34 132.451 224.973 132.811 224.68C133.171 224.387 133.571 224.167 134.011 224.02C134.451 223.873 134.897 223.8 135.351 223.8C136.004 223.8 136.597 223.933 137.131 224.2C137.677 224.467 138.111 224.867 138.431 225.4C138.751 225.933 138.911 226.613 138.911 227.44V234H136.171V227.98C136.171 227.247 136.011 226.727 135.691 226.42C135.371 226.113 134.957 225.96 134.451 225.96C134.051 225.96 133.677 226.06 133.331 226.26C132.997 226.46 132.731 226.76 132.531 227.16C132.344 227.547 132.251 228.033 132.251 228.62V234H129.511V227.98C129.511 227.247 129.344 226.727 129.011 226.42C128.691 226.113 128.277 225.96 127.771 225.96C127.424 225.96 127.077 226.053 126.731 226.24C126.397 226.427 126.117 226.72 125.891 227.12C125.677 227.52 125.571 228.047 125.571 228.7V234H122.831ZM146.377 234.2C145.324 234.2 144.404 233.993 143.617 233.58C142.844 233.167 142.244 232.573 141.817 231.8C141.39 231.027 141.177 230.093 141.177 229C141.177 227.907 141.39 226.973 141.817 226.2C142.244 225.427 142.837 224.833 143.597 224.42C144.37 224.007 145.25 223.8 146.237 223.8C147.25 223.8 148.11 224.007 148.817 224.42C149.524 224.82 150.064 225.373 150.437 226.08C150.81 226.773 150.997 227.567 150.997 228.46C150.997 228.727 150.99 228.98 150.977 229.22C150.964 229.46 150.944 229.673 150.917 229.86H142.937V227.96H149.717L148.397 228.44C148.397 227.6 148.204 226.953 147.817 226.5C147.444 226.047 146.91 225.82 146.217 225.82C145.71 225.82 145.27 225.94 144.897 226.18C144.537 226.42 144.264 226.78 144.077 227.26C143.89 227.727 143.797 228.32 143.797 229.04C143.797 229.747 143.897 230.333 144.097 230.8C144.31 231.253 144.604 231.593 144.977 231.82C145.364 232.047 145.824 232.16 146.357 232.16C146.944 232.16 147.417 232.047 147.777 231.82C148.137 231.593 148.417 231.28 148.617 230.88L150.797 231.72C150.584 232.24 150.257 232.687 149.817 233.06C149.39 233.433 148.877 233.72 148.277 233.92C147.69 234.107 147.057 234.2 146.377 234.2ZM153.319 234V224H155.779L155.939 227L155.599 226.68C155.759 226.027 156.012 225.487 156.359 225.06C156.706 224.633 157.126 224.32 157.619 224.12C158.126 223.907 158.679 223.8 159.279 223.8C159.972 223.8 160.586 223.933 161.119 224.2C161.666 224.467 162.092 224.873 162.399 225.42C162.719 225.953 162.879 226.627 162.879 227.44V234H160.139V228.22C160.139 227.367 159.972 226.78 159.639 226.46C159.306 226.127 158.872 225.96 158.339 225.96C157.966 225.96 157.599 226.053 157.239 226.24C156.892 226.413 156.606 226.7 156.379 227.1C156.166 227.5 156.059 228.033 156.059 228.7V234H153.319ZM169.182 234.2C168.515 234.2 167.915 234.08 167.382 233.84C166.848 233.6 166.422 233.22 166.102 232.7C165.795 232.167 165.642 231.48 165.642 230.64V224H168.382V229.98C168.382 230.753 168.542 231.293 168.862 231.6C169.182 231.893 169.642 232.04 170.242 232.04C170.522 232.04 170.795 231.993 171.062 231.9C171.328 231.793 171.562 231.633 171.762 231.42C171.975 231.207 172.142 230.933 172.262 230.6C172.382 230.253 172.442 229.847 172.442 229.38V224H175.182V234H172.742L172.642 232.26C172.308 232.927 171.848 233.42 171.262 233.74C170.688 234.047 169.995 234.2 169.182 234.2Z" fill="white"/>
</g>
<defs>
<filter id="filter0_dd_233_84" x="67" y="373" width="81" height="73" filterUnits="userSpaceOnUse" color-interpolation-filters="sRGB">
<feFlood flood-opacity="0" result="BackgroundImageFix"/>
<feColorMatrix in="SourceAlpha" type="matrix" values="0 0 0 0 0 0 0 0 0 0 0 0 0 0 0 0 0 0 127 0" result="hardAlpha"/>
<feMorphology radius="1" operator="erode" in="SourceAlpha" result="effect1_dropShadow_233_84"/>
<feOffset dy="2"/>
<feGaussianBlur stdDeviation="2"/>
<feColorMatrix type="matrix" values="0 0 0 0 0 0 0 0 0 0 0 0 0 0 0 0 0 0 0.06 0"/>
<feBlend mode="normal" in2="BackgroundImageFix" result="effect1_dropShadow_233_84"/>
<feColorMatrix in="SourceAlpha" type="matrix" values="0 0 0 0 0 0 0 0 0 0 0 0 0 0 0 0 0 0 127 0" result="hardAlpha"/>
<feMorphology radius="1" operator="erode" in="SourceAlpha" result="effect2_dropShadow_233_84"/>
<feOffset dy="4"/>
<feGaussianBlur stdDeviation="3"/>
<feColorMatrix type="matrix" values="0 0 0 0 0 0 0 0 0 0 0 0 0 0 0 0 0 0 0.1 0"/>
<feBlend mode="normal" in2="effect1_dropShadow_233_84" result="effect2_dropShadow_233_84"/>
<feBlend mode="normal" in="SourceGraphic" in2="effect2_dropShadow_233_84" result="shape"/>
</filter>
<filter id="filter1_dd_233_84" x="0" y="0" width="168" height="73" filterUnits="userSpaceOnUse" color-interpolation-filters="sRGB">
<feFlood flood-opacity="0" result="BackgroundImageFix"/>
<feColorMatrix in="SourceAlpha" type="matrix" values="0 0 0 0 0 0 0 0 0 0 0 0 0 0 0 0 0 0 127 0" result="hardAlpha"/>
<feMorphology radius="1" operator="erode" in="SourceAlpha" result="effect1_dropShadow_233_84"/>
<feOffset dy="2"/>
<feGaussianBlur stdDeviation="2"/>
<feColorMatrix type="matrix" values="0 0 0 0 0 0 0 0 0 0 0 0 0 0 0 0 0 0 0.06 0"/>
<feBlend mode="normal" in2="BackgroundImageFix" result="effect1_dropShadow_233_84"/>
<feColorMatrix in="SourceAlpha" type="matrix" values="0 0 0 0 0 0 0 0 0 0 0 0 0 0 0 0 0 0 127 0" result="hardAlpha"/>
<feMorphology radius="1" operator="erode" in="SourceAlpha" result="effect2_dropShadow_233_84"/>
<feOffset dy="4"/>
<feGaussianBlur stdDeviation="3"/>
<feColorMatrix type="matrix" values="0 0 0 0 0 0 0 0 0 0 0 0 0 0 0 0 0 0 0.1 0"/>
<feBlend mode="normal" in2="effect1_dropShadow_233_84" result="effect2_dropShadow_233_84"/>
<feBlend mode="normal" in="SourceGraphic" in2="effect2_dropShadow_233_84" result="shape"/>
</filter>
<filter id="filter2_dd_233_84" x="136" y="100" width="141" height="73" filterUnits="userSpaceOnUse" color-interpolation-filters="sRGB">
<feFlood flood-opacity="0" result="BackgroundImageFix"/>
<feColorMatrix in="SourceAlpha" type="matrix" values="0 0 0 0 0 0 0 0 0 0 0 0 0 0 0 0 0 0 127 0" result="hardAlpha"/>
<feMorphology radius="1" operator="erode" in="SourceAlpha" result="effect1_dropShadow_233_84"/>
<feOffset dy="2"/>
<feGaussianBlur stdDeviation="2"/>
<feColorMatrix type="matrix" values="0 0 0 0 0 0 0 0 0 0 0 0 0 0 0 0 0 0 0.06 0"/>
<feBlend mode="normal" in2="BackgroundImageFix" result="effect1_dropShadow_233_84"/>
<feColorMatrix in="SourceAlpha" type="matrix" values="0 0 0 0 0 0 0 0 0 0 0 0 0 0 0 0 0 0 127 0" result="hardAlpha"/>
<feMorphology radius="1" operator="erode" in="SourceAlpha" result="effect2_dropShadow_233_84"/>
<feOffset dy="4"/>
<feGaussianBlur stdDeviation="3"/>
<feColorMatrix type="matrix" values="0 0 0 0 0 0 0 0 0 0 0 0 0 0 0 0 0 0 0.1 0"/>
<feBlend mode="normal" in2="effect1_dropShadow_233_84" result="effect2_dropShadow_233_84"/>
<feBlend mode="normal" in="SourceGraphic" in2="effect2_dropShadow_233_84" result="shape"/>
</filter>
<filter id="filter3_dd_233_84" x="171" y="290" width="105" height="73" filterUnits="userSpaceOnUse" color-interpolation-filters="sRGB">
<feFlood flood-opacity="0" result="BackgroundImageFix"/>
<feColorMatrix in="SourceAlpha" type="matrix" values="0 0 0 0 0 0 0 0 0 0 0 0 0 0 0 0 0 0 127 0" result="hardAlpha"/>
<feMorphology radius="1" operator="erode" in="SourceAlpha" result="effect1_dropShadow_233_84"/>
<feOffset dy="2"/>
<feGaussianBlur stdDeviation="2"/>
<feColorMatrix type="matrix" values="0 0 0 0 0 0 0 0 0 0 0 0 0 0 0 0 0 0 0.06 0"/>
<feBlend mode="normal" in2="BackgroundImageFix" result="effect1_dropShadow_233_84"/>
<feColorMatrix in="SourceAlpha" type="matrix" values="0 0 0 0 0 0 0 0 0 0 0 0 0 0 0 0 0 0 127 0" result="hardAlpha"/>
<feMorphology radius="1" operator="erode" in="SourceAlpha" result="effect2_dropShadow_233_84"/>
<feOffset dy="4"/>
<feGaussianBlur stdDeviation="3"/>
<feColorMatrix type="matrix" values="0 0 0 0 0 0 0 0 0 0 0 0 0 0 0 0 0 0 0.1 0"/>
<feBlend mode="normal" in2="effect1_dropShadow_233_84" result="effect2_dropShadow_233_84"/>
<feBlend mode="normal" in="SourceGraphic" in2="effect2_dropShadow_233_84" result="shape"/>
</filter>
<filter id="filter4_dd_233_84" x="0" y="195" width="202" height="73" filterUnits="userSpaceOnUse" color-interpolation-filters="sRGB">
<feFlood flood-opacity="0" result="BackgroundImageFix"/>
<feColorMatrix in="SourceAlpha" type="matrix" values="0 0 0 0 0 0 0 0 0 0 0 0 0 0 0 0 0 0 127 0" result="hardAlpha"/>
<feMorphology radius="1" operator="erode" in="SourceAlpha" result="effect1_dropShadow_233_84"/>
<feOffset dy="2"/>
<feGaussianBlur stdDeviation="2"/>
<feColorMatrix type="matrix" values="0 0 0 0 0 0 0 0 0 0 0 0 0 0 0 0 0 0 0.06 0"/>
<feBlend mode="normal" in2="BackgroundImageFix" result="effect1_dropShadow_233_84"/>
<feColorMatrix in="SourceAlpha" type="matrix" values="0 0 0 0 0 0 0 0 0 0 0 0 0 0 0 0 0 0 127 0" result="hardAlpha"/>
<feMorphology radius="1" operator="erode" in="SourceAlpha" result="effect2_dropShadow_233_84"/>
<feOffset dy="4"/>
<feGaussianBlur stdDeviation="3"/>
<feColorMatrix type="matrix" values="0 0 0 0 0 0 0 0 0 0 0 0 0 0 0 0 0 0 0.1 0"/>
<feBlend mode="normal" in2="effect1_dropShadow_233_84" result="effect2_dropShadow_233_84"/>
<feBlend mode="normal" in="SourceGraphic" in2="effect2_dropShadow_233_84" result="shape"/>
</filter>
</defs>
</svg>
