<svg width="50" height="50" viewBox="0 0 50 50" fill="none" xmlns="http://www.w3.org/2000/svg">
<path d="M21.8 7.70001C18.6 8.50001 16 9.60001 16 10C16 11.6 19 13.2 20.7 12.5C21.7 12.1 25.4 11.5 29 11.1L35.5 10.5L33.3 8.20001C30.7 5.70001 29.7 5.60001 21.8 7.70001Z" fill="#525252"/>
<path d="M22.5 14.2C20.9 14.8 17.6 16.5 15.3 18.1C12.4 20 11 20.5 10.7 19.6C10.1 18 3.3 14.7 2.1 15.4C1.6 15.7 2 18 2.8 20.5C4.2 24.3 4.3 25.4 3.1 28.2C1 33.7 1.2 34.5 4.5 34.3C6.2 34.2 8.4 33 9.6 31.6L11.8 29.2L15.1 31.4C22 36 30.2 37.2 38.3 34.8C42.7 33.5 49 28.1 49 25.7C49 23.1 42.9 16.9 38.5 14.9C34.1 12.9 27.1 12.6 22.5 14.2ZM39.6 23.1C40.6 24.8 38.3 26.7 36.9 25.3C35.7 24.1 36.5 22 38 22C38.5 22 39.2 22.5 39.6 23.1Z" fill="#525252"/>
<path d="M24 40C24 42.7 28.9 42.7 32.1 40L34.5 38.1L29.3 38C24.7 38 24 38.2 24 40Z" fill="#525252"/>
</svg>
