<svg width="60" height="31" viewBox="0 0 60 31" fill="none" xmlns="http://www.w3.org/2000/svg">
<rect width="60" height="31" rx="6" fill="#525252"/>
<path d="M17.885 8.8C18.8983 8.8 19.765 8.97333 20.485 9.32C21.205 9.65333 21.7583 10.14 22.145 10.78C22.545 11.4067 22.745 12.1667 22.745 13.06C22.745 13.9533 22.545 14.72 22.145 15.36C21.7583 15.9867 21.205 16.4733 20.485 16.82C19.765 17.1533 18.8983 17.32 17.885 17.32H15.105V22H12.345V8.8H17.885ZM17.465 15.14C18.2917 15.14 18.9117 14.9667 19.325 14.62C19.7383 14.26 19.945 13.74 19.945 13.06C19.945 12.3667 19.7383 11.8467 19.325 11.5C18.9117 11.1533 18.2917 10.98 17.465 10.98H15.105V15.14H17.465ZM36.4013 8.8L31.6013 22H28.3813L23.5613 8.8H26.4813L29.2613 17.2L30.0213 19.8L30.7613 17.22L33.5612 8.8H36.4013ZM48.8397 8.8V11.02H44.4197V22H41.6597V11.02H37.2197V8.8H48.8397Z" fill="white"/>
</svg>
