<svg width="61" height="29" viewBox="0 0 61 29" fill="none" xmlns="http://www.w3.org/2000/svg">
	<rect width="61" height="29" rx="6" fill="#525252" />
	<path d="M22.9869 11.98C22.9869 12.7933 22.8002 13.54 22.4269 14.22C22.0535 14.8867 21.4802 15.4267 20.7069 15.84C19.9335 16.2533 18.9735 16.46 17.8269 16.46H15.7069V21.5H12.2869V7.46H17.8269C18.9469 7.46 19.8935 7.65333 20.6669 8.04C21.4402 8.42667 22.0202 8.96 22.4069 9.64C22.7935 10.32 22.9869 11.1 22.9869 11.98ZM17.5669 13.74C18.2202 13.74 18.7069 13.5867 19.0269 13.28C19.3469 12.9733 19.5069 12.54 19.5069 11.98C19.5069 11.42 19.3469 10.9867 19.0269 10.68C18.7069 10.3733 18.2202 10.22 17.5669 10.22H15.7069V13.74H17.5669ZM37.9473 7.46L32.9673 21.5H28.6873L23.7073 7.46H27.3473L30.8273 18.06L34.3273 7.46H37.9473ZM49.4767 7.46V10.2H45.7567V21.5H42.3367V10.2H38.6167V7.46H49.4767Z" fill="white" />
</svg>
