<svg width="195" height="55" viewBox="0 0 195 55" fill="none" xmlns="http://www.w3.org/2000/svg">
<g filter="url(#filter0_dd_1008_1015)">
<path d="M13.2177 6.89887C12.6298 6.89887 12.1532 7.38151 12.1532 7.97688V14.8761C12.1532 15.4715 12.6298 15.9541 13.2177 15.9541H23.096C23.6839 15.9541 24.1605 16.4368 24.1605 17.0322V20.6198C24.1605 21.2151 23.6839 21.6978 23.096 21.6978H13.2177C12.6298 21.6978 12.1532 22.1804 12.1532 22.7758V30.1925C12.1532 30.7879 12.6298 31.2705 13.2177 31.2705H24.6288C25.2167 31.2705 25.6933 31.7531 25.6933 32.3485V36.0914C25.6933 36.6867 25.2167 37.1694 24.6288 37.1694H7.12894C5.95316 37.1694 5 36.2041 5 35.0134V3.15602C5 1.96528 5.95316 1 7.12894 1H24.6288C25.2167 1 25.6933 1.48264 25.6933 2.07801V5.82086C25.6933 6.41623 25.2167 6.89887 24.6288 6.89887H13.2177Z" fill="#262626"/>
</g>
<g filter="url(#filter1_dd_1008_1015)">
<path fill-rule="evenodd" clip-rule="evenodd" d="M32.8224 45.8877L37.6394 45.931L37.5919 40.5284L32.775 40.4865C32.345 40.4825 31.9218 40.5883 31.5464 40.7917L28.3449 42.5285C28.1192 42.6517 27.9812 42.8879 28.0021 43.1273C27.9861 43.4038 28.1288 43.6422 28.3555 43.7673L31.5883 45.561C31.9661 45.7721 32.3926 45.884 32.8224 45.8877ZM32.9548 44.4796L32.8102 44.4783C32.6139 44.4745 32.4026 44.4062 32.249 44.33L30.1491 43.165L32.2296 42.0355C32.4 41.9432 32.5911 41.8964 32.788 41.8967L32.9324 41.8978L31.9883 42.8477C31.8081 43.0291 31.8106 43.3284 31.994 43.5129L32.9548 44.4796Z" fill="#262626"/>
<path d="M40.9311 45.9742L40.8835 40.5703L37.5919 40.5284L37.6394 45.931L40.9311 45.9742Z" fill="#262626"/>
<path d="M43.7698 45.9955L44.8068 43.3L43.7698 40.6045C43.8344 40.6045 43.8986 40.6038 43.9623 40.6024C43.9146 40.5983 43.8663 40.596 43.8177 40.5956L41.8177 40.578L41.8649 45.9824L43.8649 45.9999C43.9225 46.0004 43.9796 45.9983 44.0358 45.9937C43.9474 45.9949 43.8587 45.9955 43.7698 45.9955Z" fill="#262626"/>
<path d="M43.7698 40.6045L44.8068 43.3L43.7698 45.9955C43.8587 45.9955 43.9474 45.9949 44.0358 45.9937C44.988 45.9151 45.7281 45.1152 45.7194 44.134L45.7058 42.4953C45.6972 41.5049 44.9285 40.6853 43.9623 40.6024C43.8986 40.6038 43.8344 40.6045 43.7698 40.6045Z" fill="#262626"/>
<path d="M54.6362 40.1619C55.5454 38.3913 56 36.3699 56 34.0977H49.7969C49.7969 36.2814 49.2397 37.9044 48.1252 38.9667C47.0509 40.0192 45.6633 40.5644 43.9623 40.6024C44.9285 40.6853 45.6972 41.5049 45.7058 42.4953L45.7194 44.134C45.7281 45.1152 44.988 45.9151 44.0358 45.9937C46.5138 45.9589 48.7891 45.437 50.5448 44.4112C52.3632 43.3784 53.727 41.9619 54.6362 40.1619Z" fill="#262626"/>
<path fill-rule="evenodd" clip-rule="evenodd" d="M46.5414 10.1066C45.163 9.36887 43.5645 9 41.7461 9C39.6638 9 37.7721 9.51641 36.071 10.5492C34.3992 11.5821 33.0648 13.0575 32.0676 14.9756C31.0997 16.8938 30.6158 19.0922 30.6158 21.571C30.6158 24.0793 31.0997 26.3072 32.0676 28.2549C33.0648 30.173 34.4139 31.6632 36.115 32.7255C37.8161 33.7879 39.6931 34.319 41.7461 34.319C43.5352 34.319 45.119 33.9354 46.4974 33.1682C47.9052 32.4009 49.0051 31.4419 49.7969 30.291V34.0977H56V10.3205C56 9.81124 55.5897 9.39838 55.0835 9.39838H50.7135C50.2073 9.39838 49.7969 9.81124 49.7969 10.3205V12.8952C49.0051 11.7444 47.9199 10.8148 46.5414 10.1066ZM48.9171 17.8085C49.5036 18.8709 49.7969 20.1545 49.7969 21.6595C49.7969 23.1645 49.5036 24.4629 48.9171 25.5548C48.3305 26.6171 47.5386 27.4434 46.5414 28.0335C45.5442 28.5942 44.4737 28.8746 43.3299 28.8746C42.2154 28.8746 41.1596 28.5795 40.1624 27.9893C39.1945 27.3991 38.4026 26.5581 37.7867 25.4662C37.2001 24.3449 36.9069 23.0465 36.9069 21.571C36.9069 20.0955 37.2001 18.8266 37.7867 17.7643C38.4026 16.6724 39.1945 15.8462 40.1624 15.2855C41.1302 14.7248 42.1861 14.4445 43.3299 14.4445C44.4737 14.4445 45.5442 14.7396 46.5414 15.3298C47.5386 15.8904 48.3305 16.7167 48.9171 17.8085Z" fill="#262626"/>
</g>
<g filter="url(#filter2_dd_1008_1015)">
<path d="M88.0811 24.128C88.0811 24.7527 88.054 25.3369 87.9997 25.8803C87.9512 26.3667 87.5308 26.72 87.0419 26.72H68.4491C68.6091 28.64 69.2811 30.144 70.4651 31.232C71.6491 32.32 73.1051 32.864 74.8331 32.864C77.1073 32.864 78.7839 31.974 79.8626 30.194C80.06 29.8682 80.4023 29.648 80.7832 29.648H86.065C86.7349 29.648 87.2155 30.2952 86.957 30.9132C86.1209 32.9122 84.7996 34.6025 82.9931 35.984C80.8171 37.616 78.1451 38.432 74.9771 38.432C72.4171 38.432 70.1131 37.872 68.0651 36.752C66.0491 35.6 64.4651 33.984 63.3131 31.904C62.1931 29.824 61.6331 27.424 61.6331 24.704C61.6331 21.952 62.1931 19.536 63.3131 17.456C64.4331 15.376 66.0011 13.776 68.0171 12.656C70.0331 11.536 72.3531 10.976 74.9771 10.976C77.5051 10.976 79.7611 11.52 81.7451 12.608C83.7611 13.696 85.3131 15.248 86.4011 17.264C87.5211 19.248 88.0811 21.536 88.0811 24.128ZM81.1211 22.208C81.0891 20.48 80.4651 19.104 79.2491 18.08C78.0331 17.024 76.5451 16.496 74.7851 16.496C73.1211 16.496 71.7131 17.008 70.5611 18.032C69.4411 19.024 68.7531 20.416 68.4971 22.208H81.1211Z" fill="#262626"/>
<path d="M109.882 11.024C113.05 11.024 115.61 12.032 117.562 14.048C119.514 16.032 120.49 18.816 120.49 22.4V37C120.49 37.5523 120.042 38 119.49 38H114.77C114.218 38 113.77 37.5523 113.77 37V23.312C113.77 21.2 113.242 19.584 112.186 18.464C111.13 17.312 109.69 16.736 107.866 16.736C106.01 16.736 104.538 17.312 103.45 18.464C102.394 19.584 101.866 21.2 101.866 23.312V37C101.866 37.5523 101.418 38 100.866 38H96.1461C95.5938 38 95.1461 37.5523 95.1461 37V12.408C95.1461 11.8557 95.5938 11.408 96.1461 11.408H100.866C101.418 11.408 101.866 11.8557 101.866 12.408V14.72C102.762 13.568 103.898 12.672 105.274 12.032C106.682 11.36 108.218 11.024 109.882 11.024Z" fill="#262626"/>
<path d="M127.312 24.608C127.312 21.92 127.84 19.536 128.896 17.456C129.984 15.376 131.456 13.776 133.312 12.656C135.168 11.536 137.232 10.976 139.504 10.976C141.232 10.976 142.88 11.36 144.448 12.128C146.016 12.864 147.264 13.856 148.192 15.104V3.47998C148.192 2.9277 148.64 2.47998 149.192 2.47998H154.008C154.561 2.47998 155.008 2.9277 155.008 3.47998V37C155.008 37.5523 154.561 38 154.008 38H149.192C148.64 38 148.192 37.5523 148.192 37V34.064C147.36 35.376 146.192 36.432 144.688 37.232C143.184 38.032 141.44 38.432 139.456 38.432C137.216 38.432 135.168 37.856 133.312 36.704C131.456 35.552 129.984 33.936 128.896 31.856C127.84 29.744 127.312 27.328 127.312 24.608ZM148.24 24.704C148.24 23.072 147.92 21.68 147.28 20.528C146.64 19.344 145.776 18.448 144.688 17.84C143.6 17.2 142.432 16.88 141.184 16.88C139.936 16.88 138.784 17.184 137.728 17.792C136.672 18.4 135.808 19.296 135.136 20.48C134.496 21.632 134.176 23.008 134.176 24.608C134.176 26.208 134.496 27.616 135.136 28.832C135.808 30.016 136.672 30.928 137.728 31.568C138.816 32.208 139.968 32.528 141.184 32.528C142.432 32.528 143.6 32.224 144.688 31.616C145.776 30.976 146.64 30.08 147.28 28.928C147.92 27.744 148.24 26.336 148.24 24.704Z" fill="#262626"/>
<path d="M162.004 24.608C162.004 21.92 162.532 19.536 163.588 17.456C164.676 15.376 166.132 13.776 167.956 12.656C169.812 11.536 171.876 10.976 174.148 10.976C176.132 10.976 177.86 11.376 179.332 12.176C180.836 12.976 182.036 13.984 182.932 15.2V12.408C182.932 11.8557 183.379 11.408 183.932 11.408H188.7C189.252 11.408 189.7 11.8557 189.7 12.408V37C189.7 37.5523 189.252 38 188.7 38H183.932C183.379 38 182.932 37.5523 182.932 37V34.112C182.068 35.36 180.868 36.4 179.332 37.232C177.828 38.032 176.084 38.432 174.1 38.432C171.86 38.432 169.812 37.856 167.956 36.704C166.132 35.552 164.676 33.936 163.588 31.856C162.532 29.744 162.004 27.328 162.004 24.608ZM182.932 24.704C182.932 23.072 182.612 21.68 181.972 20.528C181.332 19.344 180.468 18.448 179.38 17.84C178.292 17.2 177.124 16.88 175.876 16.88C174.628 16.88 173.476 17.184 172.42 17.792C171.364 18.4 170.5 19.296 169.828 20.48C169.188 21.632 168.868 23.008 168.868 24.608C168.868 26.208 169.188 27.616 169.828 28.832C170.5 30.016 171.364 30.928 172.42 31.568C173.508 32.208 174.66 32.528 175.876 32.528C177.124 32.528 178.292 32.224 179.38 31.616C180.468 30.976 181.332 30.08 181.972 28.928C182.612 27.744 182.932 26.336 182.932 24.704Z" fill="#262626"/>
</g>
<defs>
<filter id="filter0_dd_1008_1015" x="0" y="0" width="30.6934" height="46.1694" filterUnits="userSpaceOnUse" color-interpolation-filters="sRGB">
<feFlood flood-opacity="0" result="BackgroundImageFix"/>
<feColorMatrix in="SourceAlpha" type="matrix" values="0 0 0 0 0 0 0 0 0 0 0 0 0 0 0 0 0 0 127 0" result="hardAlpha"/>
<feMorphology radius="2" operator="erode" in="SourceAlpha" result="effect1_dropShadow_1008_1015"/>
<feOffset dy="2"/>
<feGaussianBlur stdDeviation="2"/>
<feComposite in2="hardAlpha" operator="out"/>
<feColorMatrix type="matrix" values="0 0 0 0 0 0 0 0 0 0 0 0 0 0 0 0 0 0 0.1 0"/>
<feBlend mode="normal" in2="BackgroundImageFix" result="effect1_dropShadow_1008_1015"/>
<feColorMatrix in="SourceAlpha" type="matrix" values="0 0 0 0 0 0 0 0 0 0 0 0 0 0 0 0 0 0 127 0" result="hardAlpha"/>
<feMorphology radius="1" operator="erode" in="SourceAlpha" result="effect2_dropShadow_1008_1015"/>
<feOffset dy="4"/>
<feGaussianBlur stdDeviation="3"/>
<feComposite in2="hardAlpha" operator="out"/>
<feColorMatrix type="matrix" values="0 0 0 0 0 0 0 0 0 0 0 0 0 0 0 0 0 0 0.1 0"/>
<feBlend mode="normal" in2="effect1_dropShadow_1008_1015" result="effect2_dropShadow_1008_1015"/>
<feBlend mode="normal" in="SourceGraphic" in2="effect2_dropShadow_1008_1015" result="shape"/>
</filter>
<filter id="filter1_dd_1008_1015" x="23" y="8" width="38" height="47" filterUnits="userSpaceOnUse" color-interpolation-filters="sRGB">
<feFlood flood-opacity="0" result="BackgroundImageFix"/>
<feColorMatrix in="SourceAlpha" type="matrix" values="0 0 0 0 0 0 0 0 0 0 0 0 0 0 0 0 0 0 127 0" result="hardAlpha"/>
<feMorphology radius="2" operator="erode" in="SourceAlpha" result="effect1_dropShadow_1008_1015"/>
<feOffset dy="2"/>
<feGaussianBlur stdDeviation="2"/>
<feComposite in2="hardAlpha" operator="out"/>
<feColorMatrix type="matrix" values="0 0 0 0 0 0 0 0 0 0 0 0 0 0 0 0 0 0 0.1 0"/>
<feBlend mode="normal" in2="BackgroundImageFix" result="effect1_dropShadow_1008_1015"/>
<feColorMatrix in="SourceAlpha" type="matrix" values="0 0 0 0 0 0 0 0 0 0 0 0 0 0 0 0 0 0 127 0" result="hardAlpha"/>
<feMorphology radius="1" operator="erode" in="SourceAlpha" result="effect2_dropShadow_1008_1015"/>
<feOffset dy="4"/>
<feGaussianBlur stdDeviation="3"/>
<feComposite in2="hardAlpha" operator="out"/>
<feColorMatrix type="matrix" values="0 0 0 0 0 0 0 0 0 0 0 0 0 0 0 0 0 0 0.1 0"/>
<feBlend mode="normal" in2="effect1_dropShadow_1008_1015" result="effect2_dropShadow_1008_1015"/>
<feBlend mode="normal" in="SourceGraphic" in2="effect2_dropShadow_1008_1015" result="shape"/>
</filter>
<filter id="filter2_dd_1008_1015" x="56.6331" y="1.47998" width="138.067" height="45.952" filterUnits="userSpaceOnUse" color-interpolation-filters="sRGB">
<feFlood flood-opacity="0" result="BackgroundImageFix"/>
<feColorMatrix in="SourceAlpha" type="matrix" values="0 0 0 0 0 0 0 0 0 0 0 0 0 0 0 0 0 0 127 0" result="hardAlpha"/>
<feMorphology radius="2" operator="erode" in="SourceAlpha" result="effect1_dropShadow_1008_1015"/>
<feOffset dy="2"/>
<feGaussianBlur stdDeviation="2"/>
<feComposite in2="hardAlpha" operator="out"/>
<feColorMatrix type="matrix" values="0 0 0 0 0 0 0 0 0 0 0 0 0 0 0 0 0 0 0.1 0"/>
<feBlend mode="normal" in2="BackgroundImageFix" result="effect1_dropShadow_1008_1015"/>
<feColorMatrix in="SourceAlpha" type="matrix" values="0 0 0 0 0 0 0 0 0 0 0 0 0 0 0 0 0 0 127 0" result="hardAlpha"/>
<feMorphology radius="1" operator="erode" in="SourceAlpha" result="effect2_dropShadow_1008_1015"/>
<feOffset dy="4"/>
<feGaussianBlur stdDeviation="3"/>
<feComposite in2="hardAlpha" operator="out"/>
<feColorMatrix type="matrix" values="0 0 0 0 0 0 0 0 0 0 0 0 0 0 0 0 0 0 0.1 0"/>
<feBlend mode="normal" in2="effect1_dropShadow_1008_1015" result="effect2_dropShadow_1008_1015"/>
<feBlend mode="normal" in="SourceGraphic" in2="effect2_dropShadow_1008_1015" result="shape"/>
</filter>
</defs>
</svg>
