<svg width="256" height="256" viewBox="0 0 256 256" fill="none" xmlns="http://www.w3.org/2000/svg">
<rect width="256" height="256" rx="53" fill="white"/>
<g clip-path="url(#clip0_318_170)" filter="url(#filter0_dd_318_170)">
<path d="M222.941 70.2821C213.63 60.9716 197.152 68.3733 190.945 77.9211C190.945 77.9211 216.855 76.0146 216.855 101.791C227.837 90.8098 234.519 81.8623 222.941 70.2821Z" fill="#262626"/>
<path d="M203.408 86.3797L128.149 158.844L136.389 164.544L138.362 173.139L133.52 178.299L125.641 180.923L114.178 169.466L115.615 163.258L195.48 83.4172C192.956 82.8872 190.088 82.5763 186.766 82.5763L111.791 157.53L104 184.5C103.5 185 103.029 185.488 102.404 185.488C102.399 185.488 102.394 185.488 102.39 185.488C54.568 185.652 40.5123 175.538 39.7377 169.486C38.9868 163.626 48.7381 155.03 72.22 149.035C84.7761 145.83 90.2713 142.252 90.0391 137.432C89.5019 126.311 48.6971 118.805 31.1787 116.095C29.6597 115.867 28.2663 116.893 28.0327 118.396C27.8005 119.901 28.8304 121.307 30.3342 121.54C58.4631 125.893 84.2961 133.593 84.534 137.693C84.5292 137.719 83.8358 140.383 70.8563 143.695C46.6136 149.885 32.9379 159.787 34.2709 170.186C35.9456 183.252 60.7991 191 100.868 191C101.381 191 101.899 190.999 102.416 190.996C102.525 190.996 102.619 190.946 102.724 190.932L102.719 190.948L103.13 190.849C103.259 190.812 103.397 190.807 103.517 190.754L136.147 182.834L212.077 106.923C212.077 106.923 214.762 93.224 203.408 86.3797Z" fill="#262626"/>
</g>
<defs>
<filter id="filter0_dd_318_170" x="23" y="65" width="211" height="135" filterUnits="userSpaceOnUse" color-interpolation-filters="sRGB">
<feFlood flood-opacity="0" result="BackgroundImageFix"/>
<feColorMatrix in="SourceAlpha" type="matrix" values="0 0 0 0 0 0 0 0 0 0 0 0 0 0 0 0 0 0 127 0" result="hardAlpha"/>
<feMorphology radius="1" operator="erode" in="SourceAlpha" result="effect1_dropShadow_318_170"/>
<feOffset dy="2"/>
<feGaussianBlur stdDeviation="2"/>
<feColorMatrix type="matrix" values="0 0 0 0 0 0 0 0 0 0 0 0 0 0 0 0 0 0 0.06 0"/>
<feBlend mode="normal" in2="BackgroundImageFix" result="effect1_dropShadow_318_170"/>
<feColorMatrix in="SourceAlpha" type="matrix" values="0 0 0 0 0 0 0 0 0 0 0 0 0 0 0 0 0 0 127 0" result="hardAlpha"/>
<feMorphology radius="1" operator="erode" in="SourceAlpha" result="effect2_dropShadow_318_170"/>
<feOffset dy="4"/>
<feGaussianBlur stdDeviation="3"/>
<feColorMatrix type="matrix" values="0 0 0 0 0 0 0 0 0 0 0 0 0 0 0 0 0 0 0.1 0"/>
<feBlend mode="normal" in2="effect1_dropShadow_318_170" result="effect2_dropShadow_318_170"/>
<feBlend mode="normal" in="SourceGraphic" in2="effect2_dropShadow_318_170" result="shape"/>
</filter>
<clipPath id="clip0_318_170">
<rect width="201" height="125" fill="white" transform="translate(28 66)"/>
</clipPath>
</defs>
</svg>
